<svg width="35" height="35" viewBox="0 0 35 35" fill="none" xmlns="http://www.w3.org/2000/svg">
<rect width="35" height="35" rx="17.5" fill="#E9EAEF"/>
<path d="M7.77783 11.5588H27.2223M15.0695 16.3118V23.4415M19.9306 16.3118V23.4415M8.99311 11.5588L10.2084 25.818C10.2084 26.4483 10.4645 27.0528 10.9203 27.4985C11.3761 27.9442 11.9943 28.1946 12.6389 28.1946H22.3612C23.0058 28.1946 23.624 27.9442 24.0798 27.4985C24.5356 27.0528 24.7917 26.4483 24.7917 25.818L26.007 11.5588M13.8542 11.5588V7.99394C13.8542 7.67879 13.9823 7.37654 14.2102 7.1537C14.4381 6.93086 14.7472 6.80566 15.0695 6.80566H19.9306C20.2529 6.80566 20.562 6.93086 20.7899 7.1537C21.0178 7.37654 21.1459 7.67879 21.1459 7.99394V11.5588" stroke="#DDE0E6" stroke-width="2" stroke-linecap="round" stroke-linejoin="round"/>
</svg>
