<svg width="182" height="56" viewBox="0 0 182 56" fill="none" xmlns="http://www.w3.org/2000/svg">
<path d="M74.3297 23.9H68.2497L67.1297 27H65.2097L70.2497 13.14H72.3497L77.3697 27H75.4497L74.3297 23.9ZM73.8097 22.42L71.2897 15.38L68.7697 22.42H73.8097ZM83.9863 27.14C83.0663 27.14 82.2396 26.98 81.5063 26.66C80.7863 26.3267 80.2196 25.8733 79.8063 25.3C79.393 24.7133 79.1796 24.04 79.1663 23.28H81.1063C81.173 23.9333 81.4396 24.4867 81.9063 24.94C82.3863 25.38 83.0796 25.6 83.9863 25.6C84.853 25.6 85.533 25.3867 86.0263 24.96C86.533 24.52 86.7863 23.96 86.7863 23.28C86.7863 22.7467 86.6396 22.3133 86.3463 21.98C86.053 21.6467 85.6863 21.3933 85.2463 21.22C84.8063 21.0467 84.213 20.86 83.4663 20.66C82.5463 20.42 81.8063 20.18 81.2463 19.94C80.6996 19.7 80.2263 19.3267 79.8263 18.82C79.4396 18.3 79.2463 17.6067 79.2463 16.74C79.2463 15.98 79.4396 15.3067 79.8263 14.72C80.213 14.1333 80.753 13.68 81.4463 13.36C82.153 13.04 82.9596 12.88 83.8663 12.88C85.173 12.88 86.2396 13.2067 87.0663 13.86C87.9063 14.5133 88.3796 15.38 88.4863 16.46H86.4863C86.4196 15.9267 86.1396 15.46 85.6463 15.06C85.153 14.6467 84.4996 14.44 83.6863 14.44C82.9263 14.44 82.3063 14.64 81.8263 15.04C81.3463 15.4267 81.1063 15.9733 81.1063 16.68C81.1063 17.1867 81.2463 17.6 81.5263 17.92C81.8196 18.24 82.173 18.4867 82.5863 18.66C83.013 18.82 83.6063 19.0067 84.3663 19.22C85.2863 19.4733 86.0263 19.7267 86.5863 19.98C87.1463 20.22 87.6263 20.6 88.0263 21.12C88.4263 21.6267 88.6263 22.32 88.6263 23.2C88.6263 23.88 88.4463 24.52 88.0863 25.12C87.7263 25.72 87.193 26.2067 86.4863 26.58C85.7796 26.9533 84.9463 27.14 83.9863 27.14ZM105.445 13.16V27H103.625V16.68L99.0246 27H97.7446L93.1246 16.66V27H91.3046V13.16H93.2646L98.3846 24.6L103.505 13.16H105.445ZM121.203 27L117.883 21.3H115.683V27H113.863V13.06H118.363C119.417 13.06 120.303 13.24 121.023 13.6C121.757 13.96 122.303 14.4467 122.663 15.06C123.023 15.6733 123.203 16.3733 123.203 17.16C123.203 18.12 122.923 18.9667 122.363 19.7C121.817 20.4333 120.99 20.92 119.883 21.16L123.383 27H121.203ZM115.683 19.84H118.363C119.35 19.84 120.09 19.6 120.583 19.12C121.077 18.6267 121.323 17.9733 121.323 17.16C121.323 16.3333 121.077 15.6933 120.583 15.24C120.103 14.7867 119.363 14.56 118.363 14.56H115.683V19.84ZM127.851 13.06V27H126.031V13.06H127.851ZM141.513 17.1C141.126 16.2867 140.566 15.66 139.833 15.22C139.1 14.7667 138.246 14.54 137.273 14.54C136.3 14.54 135.42 14.7667 134.633 15.22C133.86 15.66 133.246 16.3 132.793 17.14C132.353 17.9667 132.133 18.9267 132.133 20.02C132.133 21.1133 132.353 22.0733 132.793 22.9C133.246 23.7267 133.86 24.3667 134.633 24.82C135.42 25.26 136.3 25.48 137.273 25.48C138.633 25.48 139.753 25.0733 140.633 24.26C141.513 23.4467 142.026 22.3467 142.173 20.96H136.613V19.48H144.113V20.88C144.006 22.0267 143.646 23.08 143.033 24.04C142.42 24.9867 141.613 25.74 140.613 26.3C139.613 26.8467 138.5 27.12 137.273 27.12C135.98 27.12 134.8 26.82 133.733 26.22C132.666 25.6067 131.82 24.76 131.193 23.68C130.58 22.6 130.273 21.38 130.273 20.02C130.273 18.66 130.58 17.44 131.193 16.36C131.82 15.2667 132.666 14.42 133.733 13.82C134.8 13.2067 135.98 12.9 137.273 12.9C138.753 12.9 140.06 13.2667 141.193 14C142.34 14.7333 143.173 15.7667 143.693 17.1H141.513ZM157.259 13.06V27H155.439V20.68H148.339V27H146.519V13.06H148.339V19.18H155.439V13.06H157.259ZM168.947 13.06V14.54H165.147V27H163.327V14.54H159.507V13.06H168.947ZM175.607 27.14C174.687 27.14 173.861 26.98 173.127 26.66C172.407 26.3267 171.841 25.8733 171.427 25.3C171.014 24.7133 170.801 24.04 170.787 23.28H172.727C172.794 23.9333 173.061 24.4867 173.527 24.94C174.007 25.38 174.701 25.6 175.607 25.6C176.474 25.6 177.154 25.3867 177.647 24.96C178.154 24.52 178.407 23.96 178.407 23.28C178.407 22.7467 178.261 22.3133 177.967 21.98C177.674 21.6467 177.307 21.3933 176.867 21.22C176.427 21.0467 175.834 20.86 175.087 20.66C174.167 20.42 173.427 20.18 172.867 19.94C172.321 19.7 171.847 19.3267 171.447 18.82C171.061 18.3 170.867 17.6067 170.867 16.74C170.867 15.98 171.061 15.3067 171.447 14.72C171.834 14.1333 172.374 13.68 173.067 13.36C173.774 13.04 174.581 12.88 175.487 12.88C176.794 12.88 177.861 13.2067 178.687 13.86C179.527 14.5133 180.001 15.38 180.107 16.46H178.107C178.041 15.9267 177.761 15.46 177.267 15.06C176.774 14.6467 176.121 14.44 175.307 14.44C174.547 14.44 173.927 14.64 173.447 15.04C172.967 15.4267 172.727 15.9733 172.727 16.68C172.727 17.1867 172.867 17.6 173.147 17.92C173.441 18.24 173.794 18.4867 174.207 18.66C174.634 18.82 175.227 19.0067 175.987 19.22C176.907 19.4733 177.647 19.7267 178.207 19.98C178.767 20.22 179.247 20.6 179.647 21.12C180.047 21.6267 180.247 22.32 180.247 23.2C180.247 23.88 180.067 24.52 179.707 25.12C179.347 25.72 178.814 26.2067 178.107 26.58C177.401 26.9533 176.567 27.14 175.607 27.14Z" fill="white"/>
<path d="M81.4224 46.969H80.0653V42.0157H74.0942V46.969H72.7371V36.0898H74.0942V40.7943H80.0653V36.0898H81.4224V46.969ZM84.4607 37.4242C85.3604 36.4139 86.5818 35.9088 88.1248 35.9088C89.6679 35.9088 90.8892 36.4139 91.7889 37.4242C92.6886 38.4345 93.1385 39.8041 93.1385 41.5331C93.1385 43.2622 92.6886 44.6318 91.7889 45.6421C90.8892 46.6473 89.6679 47.1499 88.1248 47.1499C86.5818 47.1499 85.3604 46.6473 84.4607 45.6421C83.561 44.6318 83.1112 43.2622 83.1112 41.5331C83.1112 39.8041 83.561 38.4345 84.4607 37.4242ZM90.7636 38.344C90.1152 37.5549 89.2356 37.1603 88.1248 37.1603C87.014 37.1603 86.1319 37.5549 85.4785 38.344C84.8302 39.1281 84.506 40.1911 84.506 41.5331C84.506 42.8701 84.8302 43.9332 85.4785 44.7223C86.1319 45.5064 87.014 45.8984 88.1248 45.8984C89.2356 45.8984 90.1152 45.5064 90.7636 44.7223C91.417 43.9332 91.7437 42.8701 91.7437 41.5331C91.7437 40.1911 91.417 39.1281 90.7636 38.344ZM101.432 45.7476V46.969H94.8273V36.0898H96.1844V45.7476H101.432ZM102.925 36.0898H106.581C108.194 36.0898 109.454 36.5698 110.358 37.5298C111.263 38.4847 111.715 39.8167 111.715 41.5256C111.715 43.2395 111.263 44.5765 110.358 45.5365C109.459 46.4915 108.2 46.969 106.581 46.969H102.925V36.0898ZM104.282 37.3111V45.7476H106.491C107.722 45.7476 108.669 45.3857 109.333 44.662C109.996 43.9332 110.328 42.8927 110.328 41.5407C110.328 40.1786 109.996 39.1331 109.333 38.4043C108.675 37.6755 107.727 37.3111 106.491 37.3111H104.282ZM120.144 45.7476V46.969H113.404V36.0898H120.144V37.3111H114.761V40.8018H119.865V42.0081H114.761V45.7476H120.144ZM123.296 37.296V41.4653H125.897C126.595 41.4653 127.133 41.2843 127.51 40.9225C127.892 40.5606 128.083 40.0454 128.083 39.3769C128.083 38.7235 127.885 38.2133 127.488 37.8464C127.091 37.4795 126.54 37.296 125.837 37.296H123.296ZM123.296 42.664V46.969H121.939V36.0898H126.017C127.068 36.0898 127.907 36.3863 128.536 36.9794C129.169 37.5675 129.486 38.3516 129.486 39.3317C129.486 40.0906 129.292 40.7465 128.905 41.2994C128.518 41.8523 127.983 42.2368 127.299 42.4529L129.817 46.969H128.226L125.897 42.664H123.296Z" fill="#7C92BC"/>
<circle cx="27.5724" cy="27.5724" r="27.5724" fill="url(#paint0_linear_1316_722)"/>
<g clip-path="url(#clip0_1316_722)">
<path d="M44.1564 23.126C43.91 22.8776 43.8573 22.5034 43.9453 22.1648C44.0502 21.7614 44.072 21.3383 44.0069 20.9222C43.9114 20.3127 43.6339 19.7471 43.2113 19.3007C42.9229 19.0114 42.5767 18.7875 42.1956 18.6438C41.8145 18.5002 41.4075 18.4402 41.0016 18.4678C40.463 18.4997 39.8955 18.1293 39.8955 17.5898V14.5253C39.8955 13.004 38.6622 11.7708 37.1409 11.7708H26.5989C19.2553 11.7708 13.3022 17.7239 13.3022 25.0674V29.1101C13.3022 36.4536 19.2553 42.4067 26.5989 42.4067H28.924C34.9834 42.4067 39.8955 37.4946 39.8955 31.4352V28.1248C39.8955 27.3503 40.2016 26.6072 40.7471 26.0575L42.5801 24.2101C42.7183 24.0709 42.9433 24.0709 43.0814 24.2101C43.1142 24.2431 43.1402 24.2823 43.1579 24.3254C43.1756 24.3685 43.1847 24.4147 43.1847 24.4614C43.1847 24.508 43.1756 24.5542 43.1579 24.5973C43.1402 24.6405 43.1142 24.6796 43.0814 24.7126L40.8457 26.9663C40.7032 27.11 40.6231 27.3049 40.6231 27.5081C40.6231 27.7113 40.7032 27.9061 40.8457 28.0498C40.9883 28.1935 41.1816 28.2742 41.3832 28.2742C41.5848 28.2742 41.7781 28.1935 41.9207 28.0498L44.1564 25.7962C44.5071 25.4418 44.7041 24.9617 44.7041 24.4611C44.7041 23.9605 44.5071 23.4803 44.1564 23.126ZM19.0008 18.4724C19.0008 18.0494 19.3437 17.7065 19.7667 17.7065H33.4325C33.8555 17.7065 34.1984 18.0494 34.1984 18.4724C34.1984 18.8954 33.8555 19.2383 33.4325 19.2383H19.7667C19.3437 19.2383 19.0008 18.8954 19.0008 18.4724ZM19.0008 22.3019C19.0008 21.8789 19.3437 21.536 19.7667 21.536H33.4325C33.8555 21.536 34.1984 21.8789 34.1984 22.3019C34.1984 22.7249 33.8555 23.0678 33.4325 23.0678H19.7667C19.3437 23.0678 19.0008 22.7249 19.0008 22.3019ZM19.0008 26.1314C19.0008 25.7084 19.3437 25.3655 19.7667 25.3655H28.2074C28.6304 25.3655 28.9733 25.7084 28.9733 26.1314C28.9733 26.5543 28.6304 26.8973 28.2074 26.8973H19.7667C19.3437 26.8973 19.0008 26.5543 19.0008 26.1314ZM33.0491 38.4776H25.638C24.7806 38.4776 23.9796 38.3958 23.5535 37.6891C23.118 36.9663 23.5511 36.1259 23.8674 35.5116C23.923 35.4036 23.7988 35.2699 23.6564 35.4176C23.2395 35.8505 22.5737 36.6302 22.0388 37.2566C21.474 37.9181 21.2495 38.178 21.1303 38.2874C21.0038 38.4357 20.8318 38.5373 20.6415 38.576C20.4513 38.6148 20.2537 38.5886 20.0799 38.5015C19.9238 38.4107 19.8014 38.2709 19.7316 38.1034C19.6618 37.9359 19.6483 37.7499 19.6932 37.574C19.83 36.753 18.6991 36.2814 18.2763 36.9984C17.8469 37.7266 17.5344 38.2543 17.4941 38.3225C17.4493 38.398 17.3902 38.464 17.3202 38.5165C17.2502 38.5691 17.1705 38.6072 17.0859 38.6287C17.0012 38.6503 16.9131 38.6548 16.8268 38.642C16.7404 38.6292 16.6573 38.5995 16.5823 38.5543C16.5074 38.5092 16.4419 38.4496 16.3898 38.379C16.3377 38.3084 16.2998 38.2282 16.2785 38.1428C16.2353 37.9705 16.2619 37.7879 16.3523 37.6353C16.3853 37.5801 19.6333 32.0939 20.0429 31.2974C20.1763 30.9791 20.4245 30.7237 20.7375 30.5828C21.0505 30.4419 21.4049 30.426 21.7291 30.5382C22.0217 30.6582 22.2583 30.8854 22.3914 31.1741C22.5245 31.4629 22.5442 31.7917 22.4464 32.0945C22.275 32.7609 22.1021 33.4357 21.9383 34.0767C21.826 34.5161 22.388 34.8097 22.7029 34.4832C22.955 34.1776 23.2996 33.9637 23.6838 33.8743C24.0681 33.7849 24.4708 33.8249 24.8303 33.9881C25.054 34.1029 25.233 34.2898 25.339 34.519C25.445 34.7483 25.4718 35.0067 25.4151 35.2531C25.3246 35.5578 25.2012 35.8516 25.0473 36.1292C24.7935 36.6605 24.9133 37.1366 25.6377 37.1366H33.0489C33.2252 37.1366 33.3943 37.2072 33.519 37.3328C33.6437 37.4585 33.7137 37.629 33.7137 37.8067C33.7137 37.9845 33.6437 38.1549 33.519 38.2806C33.3943 38.4063 33.2255 38.4776 33.0491 38.4776ZM32.4125 32.292C31.5354 33.1761 30.4388 33.8111 29.2353 34.1317L28.6004 34.3008C28.5643 34.3112 28.5261 34.3116 28.4898 34.3018C28.4535 34.292 28.4206 34.2724 28.3945 34.2452C28.3673 34.2192 28.3478 34.1862 28.3379 34.1497C28.3281 34.1133 28.3284 34.0749 28.3388 34.0386L28.5038 33.3871C28.8084 32.1846 29.4299 31.0857 30.3036 30.2051L34.1749 26.3027C34.7551 25.7178 35.7008 25.7178 36.2811 26.3027C36.8548 26.881 36.8548 27.8138 36.2811 28.3921L32.4125 32.292ZM41.9629 22.6646L39.4456 25.2022C38.8653 25.787 37.9196 25.787 37.3394 25.2022C36.7657 24.6238 36.7657 23.6911 37.3394 23.1127L39.8733 20.5587C40.1928 20.2273 40.6229 20.0273 41.0804 19.9973C41.1089 19.9958 41.1364 19.9949 41.1647 19.9949C41.3442 19.9914 41.5225 20.0241 41.6894 20.0908C41.8562 20.1576 42.0081 20.2572 42.1363 20.3839C42.4107 20.7107 42.5463 21.1332 42.5139 21.5601C42.4814 21.987 42.2835 22.3838 41.9629 22.6646Z" fill="white"/>
</g>
<defs>
<linearGradient id="paint0_linear_1316_722" x1="58.821" y1="55.1447" x2="7.73961" y2="5.32098" gradientUnits="userSpaceOnUse">
<stop stop-color="#203749"/>
<stop offset="1" stop-color="#A4C2FE"/>
</linearGradient>
<clipPath id="clip0_1316_722">
<rect width="36.7631" height="36.7631" fill="white" transform="translate(8.70697 8.70703)"/>
</clipPath>
</defs>
</svg>
