<svg width="24" height="24" viewBox="0 0 24 24" fill="none" xmlns="http://www.w3.org/2000/svg">
<path d="M12.002 1.98047C17.525 1.98047 22.002 6.41247 22.002 11.88C22.002 17.3475 17.525 21.7795 12.002 21.7795C10.2347 21.7823 8.49862 21.3193 6.97197 20.4381L2.00597 21.7795L3.35797 16.8614C2.46706 15.3496 1.99901 13.6302 2.00197 11.88C2.00197 6.41247 6.47897 1.98047 12.002 1.98047ZM8.59397 7.2272L8.39397 7.23512C8.26449 7.24293 8.13795 7.2766 8.02197 7.33412C7.91349 7.39493 7.81446 7.47095 7.72797 7.55983C7.60797 7.67169 7.53997 7.76871 7.46697 7.86275C7.09709 8.33882 6.89794 8.9233 6.90097 9.52389C6.90297 10.009 7.03097 10.4812 7.23097 10.9227C7.63997 11.8156 8.31297 12.761 9.20097 13.6371C9.41497 13.848 9.62497 14.0598 9.85097 14.2568C10.9544 15.2185 12.2692 15.9121 13.691 16.2823L14.259 16.3684C14.444 16.3783 14.629 16.3644 14.815 16.3555C15.1062 16.3406 15.3906 16.2626 15.648 16.1269C15.7789 16.0601 15.9067 15.9874 16.031 15.9091C16.031 15.9091 16.074 15.8813 16.156 15.82C16.291 15.721 16.374 15.6507 16.486 15.5349C16.569 15.4497 16.641 15.3497 16.696 15.2359C16.774 15.0745 16.852 14.7667 16.884 14.5103C16.908 14.3143 16.901 14.2073 16.898 14.141C16.894 14.0351 16.805 13.9252 16.708 13.8787L16.126 13.6203C16.126 13.6203 15.256 13.2451 14.724 13.0055C14.6683 12.9815 14.6086 12.9677 14.548 12.965C14.4795 12.958 14.4104 12.9656 14.3452 12.9873C14.28 13.009 14.2203 13.0442 14.17 13.0907C14.165 13.0887 14.098 13.1451 13.375 14.0123C13.3335 14.0675 13.2763 14.1092 13.2108 14.1322C13.1452 14.1551 13.0743 14.1582 13.007 14.141C12.9418 14.1237 12.878 14.1019 12.816 14.0757C12.692 14.0242 12.649 14.0044 12.564 13.9688C11.99 13.7208 11.4587 13.3858 10.989 12.9758C10.863 12.8669 10.746 12.7482 10.626 12.6333C10.2326 12.2603 9.88969 11.8384 9.60597 11.3781L9.54697 11.284C9.50459 11.2208 9.47033 11.1527 9.44497 11.0811C9.40697 10.9356 9.50597 10.8187 9.50597 10.8187C9.50597 10.8187 9.74897 10.5554 9.86197 10.4129C9.97197 10.2743 10.065 10.1396 10.125 10.0436C10.243 9.85552 10.28 9.66248 10.218 9.513C9.93797 8.83587 9.64797 8.16172 9.34997 7.49251C9.29097 7.35986 9.11597 7.26482 8.95697 7.24601C8.90297 7.24007 8.84897 7.23413 8.79497 7.23017C8.66067 7.22357 8.5261 7.22489 8.39197 7.23413L8.59297 7.22621L8.59397 7.2272Z" fill="#1F2D5B"/>
</svg>
