<svg width="27" height="24" viewBox="0 0 27 24" fill="none" xmlns="http://www.w3.org/2000/svg">
<path d="M25.5461 5.46204C25.7195 4.88199 25.5461 4.45508 24.7117 4.45508H21.9508C21.2477 4.45508 20.9242 4.82167 20.7508 5.23002C20.7508 5.23002 19.3445 8.62215 17.357 10.8217C16.7148 11.4574 16.4195 11.6616 16.068 11.6616C15.8945 11.6616 15.6273 11.4574 15.6273 10.8774V5.46204C15.6273 4.76598 15.4305 4.45508 14.8492 4.45508H10.5086C10.068 4.45508 9.80547 4.77991 9.80547 5.08153C9.80547 5.74047 10.7992 5.8936 10.9023 7.74975V11.7776C10.9023 12.6593 10.743 12.8217 10.3914 12.8217C9.45391 12.8217 7.17578 9.41565 5.82578 5.51773C5.55391 4.76134 5.28672 4.45508 4.57891 4.45508H1.81797C1.03047 4.45508 0.871094 4.82167 0.871094 5.23002C0.871094 5.95392 1.80859 9.55023 5.23516 14.302C7.51797 17.5456 10.7336 19.3043 13.6586 19.3043C15.4164 19.3043 15.632 18.9145 15.632 18.2417C15.632 15.1419 15.4727 14.8496 16.3539 14.8496C16.7617 14.8496 17.4648 15.0537 19.1055 16.6175C20.9805 18.4737 21.2898 19.3043 22.3398 19.3043H25.1008C25.8883 19.3043 26.2867 18.9145 26.057 18.1442C25.532 16.5247 21.9836 13.1929 21.8242 12.9702C21.4164 12.4505 21.5336 12.2185 21.8242 11.7544C21.8289 11.7498 25.1992 7.0537 25.5461 5.46204Z" fill="#1F2D5B"/>
</svg>
