<svg width="24" height="24" viewBox="0 0 24 24" fill="none" xmlns="http://www.w3.org/2000/svg">
<path d="M20.7106 3.6178C20.7106 3.6178 22.6531 2.86791 22.4906 4.68892C22.4371 5.43881 21.9516 8.06366 21.5736 10.9023L20.2786 19.312C20.2786 19.312 20.1706 20.544 19.1991 20.7583C18.2281 20.9721 16.7711 20.0084 16.5011 19.7941C16.2851 19.6332 12.4541 17.2227 11.1051 16.0446C10.7271 15.7229 10.2951 15.0804 11.1591 14.3305L16.8246 8.97392C17.4721 8.33144 18.1196 6.83167 15.4216 8.65268L7.86665 13.741C7.86665 13.741 7.00315 14.2771 5.38465 13.795L1.87665 12.7234C1.87665 12.7234 0.581647 11.92 2.79415 11.1167C8.19065 8.59923 14.8281 6.02833 20.7096 3.6178H20.7106Z" fill="#1F2D5B"/>
</svg>
