<svg width="138" height="24" viewBox="0 0 138 24" fill="none" xmlns="http://www.w3.org/2000/svg">
<g clip-path="url(#clip0_221_975)">
<path d="M33.0993 8.18662C33.0628 11.1003 35.665 12.7262 37.6253 13.6929C39.6393 14.6847 40.3158 15.3208 40.3078 16.2079C40.2928 17.5653 38.7013 18.1644 37.212 18.1877C34.6138 18.2284 33.103 17.4777 31.902 16.91L30.966 21.3425C32.171 21.9044 34.4022 22.3945 36.716 22.416C42.1473 22.416 45.7005 19.7027 45.7197 15.4959C45.741 10.1568 38.4228 9.8613 38.4728 7.47489C38.49 6.75128 39.1723 5.97909 40.6673 5.78275C41.4073 5.68357 43.45 5.60767 45.766 6.68701L46.675 2.39846C45.4295 1.9395 43.8288 1.50002 41.8358 1.50002C36.7238 1.50002 33.1283 4.25026 33.0993 8.18662ZM55.4095 1.86941C54.4178 1.86941 53.582 2.45488 53.209 3.35333L45.4507 22.101H50.878L51.958 19.0803H58.59L59.2165 22.101H64L59.8257 1.86941H55.4095ZM56.1688 7.33473L57.735 14.9319H53.4455L56.1688 7.33473ZM26.519 1.86967L22.241 22.1008H27.4128L31.6887 1.86916L26.519 1.86967ZM18.8682 1.86967L13.4853 15.6398L11.3077 3.93121C11.0522 2.62415 10.0433 1.86941 8.92275 1.86941H0.12325L0 2.45691C1.8065 2.85363 3.859 3.4935 5.1025 4.17815C5.8635 4.59638 6.0805 4.96198 6.3305 5.95581L10.4548 22.101H15.92L24.299 1.86941L18.8682 1.86967Z" fill="url(#paint0_linear_221_975)"/>
</g>
<g clip-path="url(#clip1_221_975)">
<path d="M79.4537 23.3856V21.8633C79.4537 21.2796 79.0934 20.8991 78.476 20.8991C78.1673 20.8991 77.8329 21.0006 77.6013 21.3305C77.4213 21.0514 77.1641 20.8991 76.7782 20.8991C76.5208 20.8991 76.2637 20.9752 76.0578 21.2543V20.9499H75.5176V23.3856H76.0578V22.0408C76.0578 21.6096 76.2894 21.4065 76.6496 21.4065C77.0096 21.4065 77.1898 21.6349 77.1898 22.0408V23.3856H77.7301V22.0408C77.7301 21.6096 77.9872 21.4065 78.3216 21.4065C78.6819 21.4065 78.8619 21.6349 78.8619 22.0408V23.3856H79.4537ZM87.4542 20.9499H86.5796V20.2141H86.0394V20.9499H85.5506V21.4318H86.0393V22.5483C86.0393 23.1066 86.2708 23.4363 86.8883 23.4363C87.1198 23.4363 87.377 23.3603 87.5572 23.2588L87.4027 22.802C87.2484 22.9035 87.0684 22.9289 86.9397 22.9289C86.6825 22.9289 86.5796 22.7767 86.5796 22.5229V21.4318H87.4542V20.9499ZM92.0334 20.899C91.7247 20.899 91.5189 21.0514 91.3903 21.2543V20.9499H90.85V23.3856H91.3903V22.0155C91.3903 21.6096 91.5703 21.3812 91.9047 21.3812C92.0076 21.3812 92.1363 21.4066 92.2392 21.432L92.3935 20.9246C92.2906 20.8991 92.1363 20.8991 92.0334 20.8991M85.1132 21.1529C84.8559 20.9753 84.4958 20.8993 84.1099 20.8993C83.4925 20.8993 83.081 21.2037 83.081 21.6858C83.081 22.0918 83.3896 22.3201 83.9299 22.3962L84.1871 22.4216C84.4701 22.4723 84.6245 22.5484 84.6245 22.6753C84.6245 22.8529 84.4187 22.9798 84.0584 22.9798C83.6982 22.9798 83.4153 22.8529 83.2352 22.7261L82.978 23.132C83.261 23.3349 83.6469 23.4364 84.0327 23.4364C84.753 23.4364 85.1647 23.1067 85.1647 22.6499C85.1647 22.2186 84.8302 21.9902 84.3157 21.9141L84.0584 21.8887C83.8269 21.8633 83.6469 21.8127 83.6469 21.6604C83.6469 21.4828 83.8269 21.3813 84.1099 21.3813C84.4187 21.3813 84.7273 21.5081 84.8817 21.5843L85.1132 21.1529ZM99.4681 20.8993C99.1593 20.8993 98.9536 21.0515 98.8249 21.2544V20.95H98.2846V23.3857H98.8249V22.0156C98.8249 21.6097 99.005 21.3813 99.3393 21.3813C99.4423 21.3813 99.571 21.4068 99.6739 21.4321L99.8282 20.9247C99.7254 20.8993 99.571 20.8993 99.4681 20.8993ZM92.5736 22.1678C92.5736 22.9036 93.0881 23.4364 93.8857 23.4364C94.2458 23.4364 94.503 23.3604 94.7602 23.1574L94.503 22.7261C94.2972 22.8783 94.0914 22.9543 93.8599 22.9543C93.4225 22.9543 93.1139 22.6499 93.1139 22.1678C93.1139 21.7112 93.4225 21.4066 93.8599 21.3813C94.0914 21.3813 94.2972 21.4574 94.503 21.6097L94.7602 21.1784C94.503 20.9753 94.2458 20.8993 93.8857 20.8993C93.0881 20.8993 92.5736 21.4321 92.5736 22.1678ZM97.5644 22.1678V20.95H97.0242V21.2544C96.8441 21.0262 96.5868 20.8993 96.2524 20.8993C95.5578 20.8993 95.0176 21.4321 95.0176 22.1678C95.0176 22.9036 95.5578 23.4364 96.2524 23.4364C96.6125 23.4364 96.8698 23.3096 97.0242 23.0812V23.3857H97.5644V22.1678ZM95.5835 22.1678C95.5835 21.7365 95.8665 21.3813 96.3295 21.3813C96.7668 21.3813 97.0756 21.7112 97.0756 22.1678C97.0756 22.5992 96.7668 22.9543 96.3295 22.9543C95.8665 22.9289 95.5835 22.5992 95.5835 22.1678ZM89.1264 20.8993C88.4061 20.8993 87.8915 21.4066 87.8915 22.1678C87.8915 22.929 88.406 23.4364 89.1521 23.4364C89.5122 23.4364 89.8725 23.3349 90.1555 23.1067L89.8981 22.7261C89.6923 22.8783 89.4351 22.9798 89.1779 22.9798C88.8434 22.9798 88.509 22.8276 88.4318 22.3961H90.2584V22.1933C90.2841 21.4066 89.8211 20.8993 89.1264 20.8993ZM89.1263 21.3559C89.4607 21.3559 89.6923 21.559 89.7437 21.9396H88.4574C88.5089 21.6097 88.7404 21.3559 89.1263 21.3559ZM102.529 22.1678V19.9858H101.989V21.2544C101.809 21.0262 101.552 20.8993 101.217 20.8993C100.523 20.8993 99.9825 21.4321 99.9825 22.1678C99.9825 22.9036 100.523 23.4364 101.217 23.4364C101.577 23.4364 101.835 23.3096 101.989 23.0812V23.3857H102.529V22.1678ZM100.548 22.1678C100.548 21.7365 100.831 21.3813 101.294 21.3813C101.732 21.3813 102.041 21.7112 102.041 22.1678C102.041 22.5992 101.732 22.9543 101.294 22.9543C100.831 22.9289 100.548 22.5992 100.548 22.1678ZM82.4891 22.1678V20.95H81.9488V21.2544C81.7687 21.0262 81.5115 20.8993 81.177 20.8993C80.4825 20.8993 79.9422 21.4321 79.9422 22.1678C79.9422 22.9036 80.4825 23.4364 81.177 23.4364C81.5373 23.4364 81.7945 23.3096 81.9488 23.0812V23.3857H82.4891V22.1678ZM80.4825 22.1678C80.4825 21.7365 80.7655 21.3813 81.2285 21.3813C81.6658 21.3813 81.9746 21.7112 81.9746 22.1678C81.9746 22.5992 81.6658 22.9543 81.2285 22.9543C80.7655 22.9289 80.4825 22.5992 80.4825 22.1678Z" fill="black"/>
<path d="M84.9336 2.45361H93.0371V16.8143H84.9336V2.45361Z" fill="#FF5F00"/>
<path d="M85.4479 9.634C85.4479 6.71624 86.8371 4.12822 88.9722 2.45361C87.4031 1.23577 85.4223 0.5 83.2613 0.5C78.1418 0.5 74 4.58487 74 9.634C74 14.6831 78.1418 18.768 83.2612 18.768C85.4221 18.768 87.403 18.0322 88.9722 16.8143C86.8371 15.1651 85.4479 12.5518 85.4479 9.634Z" fill="#EB001B"/>
<path d="M103.97 9.634C103.97 14.683 99.8285 18.768 94.7091 18.768C92.5481 18.768 90.5673 18.0322 88.998 16.8143C91.159 15.1398 92.5225 12.5518 92.5225 9.634C92.5225 6.71624 91.1332 4.12822 88.998 2.45361C90.5672 1.23577 92.5481 0.5 94.7091 0.5C99.8285 0.5 103.97 4.6103 103.97 9.634Z" fill="#F79E1B"/>
</g>
<g clip-path="url(#clip2_221_975)">
<path d="M130.015 14.378C130.015 14.058 129.88 13.882 129.671 13.756C129.461 13.636 129.207 13.621 128.861 13.621H127.318V16.441H127.993V15.414H128.713C128.953 15.414 129.103 15.438 129.191 15.539C129.311 15.669 129.295 15.919 129.295 16.089V16.439H129.955V15.884C129.953 15.634 129.938 15.508 129.847 15.368C129.761 15.2612 129.646 15.1803 129.517 15.134L129.537 15.126C129.683 15.0651 129.808 14.9609 129.894 14.8275C129.979 14.694 130.022 14.5376 130.017 14.379L130.015 14.378ZM129.145 14.785L129.117 14.783C129.027 14.836 128.922 14.841 128.787 14.841H127.977V14.211H128.801C128.921 14.211 129.041 14.211 129.131 14.261C129.178 14.2843 129.217 14.3208 129.244 14.3661C129.271 14.4114 129.284 14.4635 129.281 14.516C129.281 14.636 129.236 14.731 129.147 14.786L129.145 14.785ZM134.297 15.837H133V16.437H134.304C134.98 16.437 135.354 16.159 135.354 15.553C135.354 15.273 135.288 15.105 135.167 14.971C135.014 14.838 134.775 14.778 134.437 14.764L134.061 14.749C133.957 14.749 133.881 14.749 133.806 14.719C133.761 14.7057 133.722 14.6778 133.695 14.6398C133.668 14.6017 133.654 14.5557 133.656 14.509C133.656 14.419 133.673 14.343 133.746 14.299C133.829 14.2536 133.923 14.2328 134.018 14.239H135.248V13.637H133.898C133.194 13.637 132.94 14.074 132.94 14.477C132.94 15.377 133.716 15.332 134.347 15.347C134.451 15.347 134.527 15.362 134.572 15.407C134.618 15.437 134.654 15.513 134.654 15.587C134.654 15.664 134.619 15.737 134.574 15.767C134.514 15.82 134.424 15.837 134.297 15.837ZM114 0V10.096L114.81 8.22H116.56L116.785 8.684V8.22H118.828L119.278 9.24L119.715 8.227H126.217C126.512 8.227 126.777 8.284 126.973 8.463V8.233H128.76V8.463C129.067 8.293 129.446 8.233 129.88 8.233H132.486L132.726 8.699V8.233H134.644L134.898 8.698V8.232H136.756V12.18H134.87L134.51 11.58V12.165H132.157L131.901 11.535H131.318L131.048 12.149H129.835C129.355 12.149 128.995 12.045 128.755 11.909V12.149H125.865V11.265C125.865 11.145 125.835 11.145 125.76 11.13H125.655V12.166H120.067V11.686L119.857 12.166H118.69L118.488 11.686V12.151H116.235L115.979 11.527H115.4L115.144 12.151H114V24H137.786V16.892C137.516 17.027 137.173 17.072 136.813 17.072H135.09V16.817C134.88 16.982 134.52 17.072 134.176 17.072H128.71V16.172C128.71 16.052 128.692 16.052 128.59 16.052H128.515V17.074H126.715V16.008C126.417 16.144 126.072 16.158 125.787 16.144H125.573V17.059H123.393L122.853 16.442L122.283 17.042H118.742V13.112H122.352L122.87 13.714L123.424 13.114H125.836C126.116 13.114 126.576 13.144 126.778 13.339V13.099H128.955C129.157 13.099 129.599 13.144 129.858 13.324V13.084H133.123V13.324C133.286 13.16 133.631 13.084 133.926 13.084H135.816V13.324C136.01 13.174 136.28 13.084 136.656 13.084H137.832V0H114ZM135.156 14.955L135.167 14.971C135.177 14.981 135.19 14.981 135.198 14.991L135.156 14.955ZM137.828 13.082H137.893V13.637H137.828V13.082ZM137.865 15.03V15.025C137.835 15 137.819 14.977 137.79 14.955C137.64 14.802 137.4 14.74 137.026 14.73L136.666 14.718C136.575 14.7217 136.484 14.7116 136.396 14.688C136.351 14.6747 136.312 14.6468 136.285 14.6088C136.258 14.5707 136.244 14.5247 136.246 14.478C136.246 14.3873 136.276 14.3193 136.336 14.274C136.412 14.229 136.486 14.224 136.606 14.224H137.829V13.636H136.546C135.856 13.636 135.586 14.073 135.586 14.476C135.586 15.376 136.366 15.331 136.996 15.346C137.1 15.346 137.176 15.361 137.22 15.406C137.266 15.436 137.296 15.512 137.296 15.586C137.296 15.656 137.262 15.724 137.206 15.766C137.161 15.822 137.07 15.836 136.936 15.836H135.648V16.441H136.935C137.355 16.441 137.669 16.323 137.835 16.081H137.865C137.955 15.947 138 15.781 138 15.558C138 15.318 137.955 15.168 137.865 15.032V15.03ZM132.597 14.208V13.625H130.362V16.458H132.597V15.873H131.027V15.303H132.56V14.719H131.028V14.209M127.51 8.787H128.195V11.6H127.511L127.51 8.787ZM127.126 9.543L127.119 9.549C127.119 9.235 126.989 9.049 126.779 8.925C126.562 8.8 126.309 8.79 125.969 8.79H124.43V11.61H125.104V10.576H125.824C126.064 10.576 126.214 10.606 126.311 10.696C126.433 10.832 126.418 11.074 126.418 11.244V11.598H127.095V11.045C127.095 10.795 127.079 10.67 126.985 10.529C126.897 10.4229 126.784 10.3413 126.655 10.292C126.827 10.222 127.127 9.992 127.127 9.542L127.126 9.543ZM126.271 9.939H126.256C126.166 9.993 126.061 9.995 125.926 9.995H125.1V9.372H125.925C126.045 9.372 126.165 9.376 126.255 9.422C126.345 9.462 126.405 9.55 126.405 9.672C126.405 9.794 126.358 9.892 126.271 9.938V9.939ZM129.92 9.373H130.552V8.773H129.908C129.444 8.773 129.104 8.878 128.888 9.103C128.602 9.403 128.526 9.793 128.526 10.213C128.526 10.725 128.649 11.046 128.886 11.287C129.118 11.525 129.531 11.597 129.856 11.597H130.636L130.891 10.97H132.281L132.543 11.597H133.903V9.487L135.175 11.597H136.125L136.127 11.599V8.786H135.443V10.749L134.263 8.789H133.243V11.4L132.11 8.744H131.106L130.163 10.964H129.863C129.686 10.964 129.501 10.934 129.395 10.83C129.27 10.68 129.209 10.47 129.209 10.168C129.209 9.883 129.289 9.658 129.403 9.538C129.536 9.403 129.675 9.373 129.919 9.373H129.92ZM131.588 9.265L132.052 10.383V10.385H131.122L131.588 9.265ZM116.38 10.97L116.634 11.598H118V9.393L118.972 11.598H119.556L120.529 9.396L120.544 11.598H121.234V8.788H120.118L119.311 10.692L118.435 8.787H117.343V11.45L116.205 8.787H115.208L114.01 11.597H114.73L114.99 10.971L116.38 10.97ZM115.692 9.265L116.152 10.383L116.149 10.385H115.234L115.691 9.265H115.692ZM125.856 13.62H123.714L122.864 14.543L122.039 13.621H119.346V16.441H122L122.855 15.509L123.679 16.439H124.981V15.499H125.819C126.419 15.499 126.989 15.335 126.989 14.554L126.983 14.551C126.983 13.771 126.385 13.621 125.855 13.621L125.856 13.62ZM121.67 15.853L121.656 15.851H120.02V15.294H121.49V14.72H120.02V14.21H121.7L122.433 15.03L121.669 15.854L121.67 15.853ZM124.312 16.183L123.282 15.036L124.312 13.928V16.181V16.183ZM125.865 14.925H124.98V14.208H125.865C126.105 14.208 126.285 14.306 126.285 14.552C126.285 14.795 126.135 14.924 125.865 14.924V14.925ZM123.967 9.373V8.787H121.73V11.6H123.967V11.02H122.4V10.456H123.927V9.88H122.4V9.373" fill="#006EEB"/>
</g>
<defs>
<linearGradient id="paint0_linear_221_975" x1="2942.34" y1="64.3735" x2="3003.61" y2="-2083.69" gradientUnits="userSpaceOnUse">
<stop stop-color="#222357"/>
<stop offset="1" stop-color="#254AA5"/>
</linearGradient>
<clipPath id="clip0_221_975">
<rect width="64" height="21" fill="white" transform="translate(0 1.5)"/>
</clipPath>
<clipPath id="clip1_221_975">
<rect width="30" height="23" fill="white" transform="translate(74 0.5)"/>
</clipPath>
<clipPath id="clip2_221_975">
<rect width="24" height="24" fill="white" transform="translate(114)"/>
</clipPath>
</defs>
</svg>
